<svg width="158" height="87" viewBox="0 0 158 87" fill="none" xmlns="http://www.w3.org/2000/svg">
<path d="M152.318 1.89604C151.978 0.557783 150.618 -0.251657 149.279 0.0881005L127.471 5.6248C126.133 5.96456 125.324 7.32486 125.663 8.66311C126.003 10.0014 127.363 10.8108 128.702 10.4711L148.087 5.54954L153.008 24.9346C153.348 26.2728 154.708 27.0823 156.046 26.7425C157.385 26.4027 158.194 25.0424 157.854 23.7042L152.318 1.89604ZM102 83L100.91 85.25L102.975 86.2502L104.148 84.2784L102 83ZM0.804707 36.7612L4.97577 38.7815L7.15542 34.2816L2.98436 32.2613L0.804707 36.7612ZM13.3179 42.8223L21.66 46.863L23.8397 42.3631L15.4975 38.3224L13.3179 42.8223ZM30.0021 50.9037L38.3443 54.9445L40.5239 50.4446L32.1818 46.4038L30.0021 50.9037ZM46.6864 58.9852L55.0285 63.0259L57.2082 58.526L48.866 54.4853L46.6864 58.9852ZM63.3706 67.0667L71.7128 71.1074L73.8924 66.6075L65.5503 62.5668L63.3706 67.0667ZM80.0549 75.1481L88.397 79.1889L90.5767 74.689L82.2345 70.6482L80.0549 75.1481ZM96.7391 83.2296L100.91 85.25L103.09 80.7501L98.9188 78.7297L96.7391 83.2296ZM104.148 84.2784L106.543 80.254L102.246 77.6972L99.8516 81.7216L104.148 84.2784ZM111.333 72.2051L116.122 64.1562L111.825 61.5994L107.036 69.6483L111.333 72.2051ZM120.912 56.1073L125.701 48.0585L121.404 45.5016L116.615 53.5505L120.912 56.1073ZM130.49 40.0096L135.28 31.9607L130.983 29.4039L126.194 37.4528L130.49 40.0096ZM140.069 23.9118L144.859 15.8629L140.562 13.3061L135.773 21.355L140.069 23.9118ZM149.648 7.81406L152.043 3.78963L147.746 1.23282L145.351 5.25725L149.648 7.81406Z" fill="#828584" fill-opacity="0.5"/>
</svg>
