<svg width="170" height="100" viewBox="0 0 170 100" fill="none" xmlns="http://www.w3.org/2000/svg">
<path d="M158.898 98.0676C158.278 99.4888 156.623 100.138 155.201 99.5174L132.041 89.4055C130.62 88.7849 129.971 87.1298 130.591 85.7085C131.212 84.2873 132.867 83.6382 134.288 84.2587L154.875 93.2471L163.864 72.6601C164.484 71.2389 166.139 70.5898 167.56 71.2103C168.982 71.8308 169.631 73.486 169.01 74.9072L158.898 98.0676ZM119.595 3.28498L119.029 0.534654L121.345 0.0579329L122.209 2.2598L119.595 3.28498ZM0.424747 24.9416L6.35494 23.7212L7.4869 29.2219L1.5567 30.4422L0.424747 24.9416ZM18.2153 21.2805L30.0757 18.8398L31.2077 24.3405L19.3473 26.7812L18.2153 21.2805ZM41.9361 16.3991L53.7965 13.9585L54.9285 19.4591L43.0681 21.8998L41.9361 16.3991ZM65.6569 11.5178L77.5173 9.07708L78.6493 14.5777L66.7889 17.0184L65.6569 11.5178ZM89.3777 6.63639L101.238 4.19569L102.37 9.69634L90.5096 12.137L89.3777 6.63639ZM113.098 1.755L119.029 0.534654L120.161 6.03531L114.23 7.25565L113.098 1.755ZM122.209 2.2598L124.504 8.11349L119.276 10.1639L116.981 4.31016L122.209 2.2598ZM129.096 19.8209L133.687 31.5283L128.459 33.5786L123.867 21.8712L129.096 19.8209ZM138.278 43.2356L142.87 54.943L137.641 56.9934L133.05 45.286L138.278 43.2356ZM147.461 66.6504L152.052 78.3578L146.824 80.4081L142.233 68.7008L147.461 66.6504ZM156.643 90.0652L158.939 95.9189L153.711 97.9692L151.415 92.1155L156.643 90.0652Z" fill="#7A7B7B" fill-opacity="0.5"/>
</svg>
