<svg width="120" height="20" viewBox="0 0 120 20" fill="none" xmlns="http://www.w3.org/2000/svg">
<path d="M9.10337 3.48329C9.47021 2.74012 10.53 2.74012 10.8968 3.48329L12.3426 6.41241C12.4882 6.70726 12.7694 6.91172 13.0947 6.95928L16.3296 7.43211C17.1495 7.55195 17.4763 8.55979 16.8827 9.13795L14.5435 11.4163C14.3077 11.6461 14.2 11.9772 14.2557 12.3017L14.8075 15.5193C14.9476 16.3362 14.0901 16.9592 13.3564 16.5734L10.4655 15.0531C10.1741 14.8999 9.82601 14.8999 9.53463 15.0531L6.64371 16.5734C5.91008 16.9592 5.05254 16.3362 5.19265 15.5193L5.7445 12.3017C5.80016 11.9772 5.6925 11.6461 5.45663 11.4163L3.11743 9.13795C2.52383 8.55979 2.85062 7.55195 3.67053 7.43211L6.90545 6.95928C7.2308 6.91172 7.51199 6.70726 7.65753 6.41241L9.10337 3.48329Z" fill="#FFB800"/>
<path d="M34.1034 3.48329C34.4702 2.74012 35.53 2.74012 35.8968 3.48329L37.3426 6.41241C37.4882 6.70726 37.7694 6.91172 38.0947 6.95928L41.3296 7.43211C42.1495 7.55195 42.4763 8.55979 41.8827 9.13795L39.5435 11.4163C39.3077 11.6461 39.2 11.9772 39.2557 12.3017L39.8075 15.5193C39.9476 16.3362 39.0901 16.9592 38.3564 16.5734L35.4655 15.0531C35.1741 14.8999 34.826 14.8999 34.5346 15.0531L31.6437 16.5734C30.9101 16.9592 30.0525 16.3362 30.1927 15.5193L30.7445 12.3017C30.8002 11.9772 30.6925 11.6461 30.4566 11.4163L28.1174 9.13795C27.5238 8.55979 27.8506 7.55195 28.6705 7.43211L31.9054 6.95928C32.2308 6.91172 32.512 6.70726 32.6575 6.41241L34.1034 3.48329Z" fill="#FFB800"/>
<path d="M59.1034 3.48329C59.4702 2.74012 60.53 2.74012 60.8968 3.48329L62.3426 6.41241C62.4882 6.70726 62.7694 6.91172 63.0947 6.95928L66.3296 7.43211C67.1495 7.55195 67.4763 8.55979 66.8827 9.13795L64.5435 11.4163C64.3077 11.6461 64.2 11.9772 64.2557 12.3017L64.8075 15.5193C64.9476 16.3362 64.0901 16.9592 63.3564 16.5734L60.4655 15.0531C60.1741 14.8999 59.826 14.8999 59.5346 15.0531L56.6437 16.5734C55.9101 16.9592 55.0525 16.3362 55.1927 15.5193L55.7445 12.3017C55.8002 11.9772 55.6925 11.6461 55.4566 11.4163L53.1174 9.13795C52.5238 8.55979 52.8506 7.55195 53.6705 7.43211L56.9054 6.95928C57.2308 6.91172 57.512 6.70726 57.6575 6.41241L59.1034 3.48329Z" fill="#FFB800"/>
<path d="M84.1034 3.48329C84.4702 2.74012 85.53 2.74012 85.8968 3.48329L87.3426 6.41241C87.4882 6.70726 87.7694 6.91172 88.0947 6.95928L91.3296 7.43211C92.1495 7.55195 92.4763 8.55979 91.8827 9.13795L89.5435 11.4163C89.3077 11.6461 89.2 11.9772 89.2557 12.3017L89.8075 15.5193C89.9476 16.3362 89.0901 16.9592 88.3564 16.5734L85.4655 15.0531C85.1741 14.8999 84.826 14.8999 84.5346 15.0531L81.6437 16.5734C80.9101 16.9592 80.0525 16.3362 80.1927 15.5193L80.7445 12.3017C80.8002 11.9772 80.6925 11.6461 80.4566 11.4163L78.1174 9.13795C77.5238 8.55979 77.8506 7.55195 78.6705 7.43211L81.9054 6.95928C82.2308 6.91172 82.512 6.70726 82.6575 6.41241L84.1034 3.48329Z" fill="#FFB800"/>
<path d="M109.103 3.48329C109.47 2.74012 110.53 2.74012 110.897 3.48329L112.343 6.41241C112.488 6.70726 112.769 6.91172 113.095 6.95928L116.33 7.43211C117.15 7.55195 117.476 8.55979 116.883 9.13795L114.544 11.4163C114.308 11.6461 114.2 11.9772 114.256 12.3017L114.808 15.5193C114.948 16.3362 114.09 16.9592 113.356 16.5734L110.466 15.0531C110.174 14.8999 109.826 14.8999 109.535 15.0531L106.644 16.5734C105.91 16.9592 105.053 16.3362 105.193 15.5193L105.745 12.3017C105.8 11.9772 105.692 11.6461 105.457 11.4163L103.117 9.13795C102.524 8.55979 102.851 7.55195 103.671 7.43211L106.905 6.95928C107.231 6.91172 107.512 6.70726 107.658 6.41241L109.103 3.48329Z" fill="#FFB800"/>
</svg>
