<svg width="430" height="62" viewBox="0 0 430 62" fill="none" xmlns="http://www.w3.org/2000/svg">
<path d="M15.136 61V16.648H0.1V6.232H42.604V16.648H27.568V61H15.136ZM62.3853 62.008C59.4173 62.008 56.6453 61.532 54.0693 60.58C51.4933 59.572 49.2533 58.144 47.3493 56.296C45.4453 54.392 43.9613 52.096 42.8973 49.408C41.8333 46.72 41.3013 43.64 41.3013 40.168C41.3013 36.808 41.8613 33.784 42.9813 31.096C44.1013 28.352 45.5573 26.056 47.3493 24.208C49.1973 22.304 51.2973 20.848 53.6493 19.84C56.0013 18.832 58.4373 18.328 60.9573 18.328C63.9253 18.328 66.5013 18.832 68.6853 19.84C70.9253 20.848 72.7733 22.248 74.2293 24.04C75.7413 25.832 76.8613 27.96 77.5893 30.424C78.3173 32.832 78.6813 35.464 78.6813 38.32C78.6813 39.44 78.6253 40.504 78.5133 41.512C78.4013 42.52 78.2893 43.276 78.1773 43.78H53.2293C53.7893 46.804 55.0213 49.044 56.9253 50.5C58.8853 51.9 61.2653 52.6 64.0653 52.6C67.0333 52.6 70.0293 51.676 73.0533 49.828L77.1693 57.304C75.0413 58.76 72.6613 59.908 70.0293 60.748C67.4533 61.588 64.9053 62.008 62.3853 62.008ZM53.1453 35.632H68.1813C68.1813 33.28 67.6493 31.376 66.5853 29.92C65.5213 28.464 63.7293 27.736 61.2093 27.736C59.2493 27.736 57.5133 28.38 56.0013 29.668C54.5453 30.956 53.5933 32.944 53.1453 35.632ZM99.4779 62.008C96.7339 62.008 93.9059 61.476 90.9939 60.412C88.1379 59.348 85.6459 57.948 83.5179 56.212L89.0619 48.484C90.9659 49.94 92.7859 51.032 94.5219 51.76C96.2579 52.488 98.0219 52.852 99.8139 52.852C101.662 52.852 103.006 52.544 103.846 51.928C104.686 51.312 105.106 50.444 105.106 49.324C105.106 48.652 104.854 48.064 104.35 47.56C103.902 47 103.258 46.496 102.418 46.048C101.634 45.6 100.738 45.208 99.7299 44.872C98.7219 44.48 97.6859 44.06 96.6219 43.612C95.3339 43.108 94.0459 42.52 92.7579 41.848C91.4699 41.176 90.2939 40.364 89.2299 39.412C88.1659 38.404 87.2979 37.256 86.6259 35.968C85.9539 34.624 85.6179 33.084 85.6179 31.348C85.6179 29.444 85.9819 27.68 86.7099 26.056C87.4939 24.432 88.5859 23.06 89.9859 21.94C91.3859 20.82 93.0659 19.952 95.0259 19.336C96.9859 18.664 99.1699 18.328 101.578 18.328C104.77 18.328 107.57 18.888 109.978 20.008C112.386 21.072 114.486 22.276 116.278 23.62L110.734 31.012C109.222 29.892 107.738 29.024 106.282 28.408C104.826 27.792 103.37 27.484 101.914 27.484C98.7779 27.484 97.2099 28.576 97.2099 30.76C97.2099 31.432 97.4339 32.02 97.8819 32.524C98.3299 32.972 98.9179 33.392 99.6459 33.784C100.43 34.176 101.298 34.568 102.25 34.96C103.258 35.296 104.294 35.66 105.358 36.052C106.702 36.556 108.018 37.144 109.306 37.816C110.65 38.432 111.854 39.216 112.918 40.168C114.038 41.12 114.934 42.296 115.606 43.696C116.278 45.04 116.614 46.664 116.614 48.568C116.614 50.472 116.25 52.236 115.522 53.86C114.794 55.484 113.702 56.912 112.246 58.144C110.79 59.32 108.998 60.272 106.87 61C104.742 61.672 102.278 62.008 99.4779 62.008ZM138.859 62.008C136.283 62.008 134.071 61.616 132.223 60.832C130.431 60.048 128.947 58.956 127.771 57.556C126.651 56.156 125.811 54.476 125.251 52.516C124.747 50.5 124.495 48.288 124.495 45.88V28.996H118.783V19.84L125.167 19.336L126.595 8.248H136.843V19.336H146.839V28.996H136.843V45.712C136.843 48.064 137.319 49.772 138.271 50.836C139.279 51.844 140.595 52.348 142.219 52.348C142.891 52.348 143.563 52.264 144.235 52.096C144.963 51.928 145.607 51.732 146.167 51.508L148.099 60.496C146.979 60.832 145.663 61.168 144.151 61.504C142.639 61.84 140.875 62.008 138.859 62.008ZM154.972 61V19.336H167.32V61H154.972ZM161.104 13.204C159.032 13.204 157.324 12.616 155.98 11.44C154.636 10.208 153.964 8.64 153.964 6.736C153.964 4.832 154.636 3.292 155.98 2.116C157.324 0.939996 159.032 0.351995 161.104 0.351995C163.232 0.351995 164.94 0.939996 166.228 2.116C167.572 3.292 168.244 4.832 168.244 6.736C168.244 8.64 167.572 10.208 166.228 11.44C164.94 12.616 163.232 13.204 161.104 13.204ZM178.187 61V19.336H188.267L189.107 24.712H189.443C191.179 22.976 193.027 21.492 194.987 20.26C196.947 18.972 199.299 18.328 202.043 18.328C205.011 18.328 207.391 18.944 209.183 20.176C211.031 21.352 212.487 23.06 213.551 25.3C215.399 23.396 217.331 21.772 219.347 20.428C221.419 19.028 223.855 18.328 226.655 18.328C231.135 18.328 234.411 19.84 236.483 22.864C238.611 25.832 239.675 29.92 239.675 35.128V61H227.327V36.724C227.327 33.7 226.907 31.628 226.067 30.508C225.283 29.388 223.995 28.828 222.203 28.828C220.131 28.828 217.751 30.172 215.063 32.86V61H202.715V36.724C202.715 33.7 202.295 31.628 201.455 30.508C200.671 29.388 199.383 28.828 197.591 28.828C195.463 28.828 193.111 30.172 190.535 32.86V61H178.187ZM268.102 62.008C265.47 62.008 262.922 61.532 260.458 60.58C257.994 59.572 255.81 58.144 253.906 56.296C252.058 54.448 250.574 52.18 249.454 49.492C248.334 46.748 247.774 43.64 247.774 40.168C247.774 36.696 248.334 33.616 249.454 30.928C250.574 28.184 252.058 25.888 253.906 24.04C255.81 22.192 257.994 20.792 260.458 19.84C262.922 18.832 265.47 18.328 268.102 18.328C270.734 18.328 273.254 18.832 275.662 19.84C278.126 20.792 280.282 22.192 282.13 24.04C284.034 25.888 285.546 28.184 286.666 30.928C287.786 33.616 288.346 36.696 288.346 40.168C288.346 43.64 287.786 46.748 286.666 49.492C285.546 52.18 284.034 54.448 282.13 56.296C280.282 58.144 278.126 59.572 275.662 60.58C273.254 61.532 270.734 62.008 268.102 62.008ZM268.102 52.012C270.622 52.012 272.526 50.948 273.814 48.82C275.102 46.692 275.746 43.808 275.746 40.168C275.746 36.528 275.102 33.644 273.814 31.516C272.526 29.388 270.622 28.324 268.102 28.324C265.526 28.324 263.594 29.388 262.306 31.516C261.074 33.644 260.458 36.528 260.458 40.168C260.458 43.808 261.074 46.692 262.306 48.82C263.594 50.948 265.526 52.012 268.102 52.012ZM296.804 61V19.336H306.884L307.724 24.628H308.06C309.852 22.948 311.812 21.492 313.94 20.26C316.068 18.972 318.56 18.328 321.416 18.328C325.952 18.328 329.228 19.812 331.244 22.78C333.316 25.748 334.352 29.864 334.352 35.128V61H322.004V36.724C322.004 33.7 321.584 31.628 320.744 30.508C319.96 29.388 318.672 28.828 316.88 28.828C315.312 28.828 313.968 29.192 312.848 29.92C311.728 30.592 310.496 31.572 309.152 32.86V61H296.804ZM344.874 61V19.336H357.222V61H344.874ZM351.006 13.204C348.934 13.204 347.226 12.616 345.882 11.44C344.538 10.208 343.866 8.64 343.866 6.736C343.866 4.832 344.538 3.292 345.882 2.116C347.226 0.939996 348.934 0.351995 351.006 0.351995C353.134 0.351995 354.842 0.939996 356.13 2.116C357.474 3.292 358.146 4.832 358.146 6.736C358.146 8.64 357.474 10.208 356.13 11.44C354.842 12.616 353.134 13.204 351.006 13.204ZM378.589 62.008C376.685 62.008 374.949 61.672 373.381 61C371.869 60.384 370.581 59.516 369.517 58.396C368.453 57.22 367.613 55.876 366.997 54.364C366.437 52.852 366.157 51.2 366.157 49.408C366.157 45.04 368.005 41.624 371.701 39.16C375.397 36.696 381.361 35.044 389.593 34.204C389.481 32.356 388.921 30.9 387.913 29.836C386.961 28.716 385.337 28.156 383.041 28.156C381.249 28.156 379.457 28.492 377.665 29.164C375.929 29.836 374.053 30.76 372.037 31.936L367.585 23.788C370.273 22.164 373.073 20.848 375.985 19.84C378.953 18.832 382.089 18.328 385.393 18.328C390.769 18.328 394.857 19.868 397.657 22.948C400.513 25.972 401.941 30.704 401.941 37.144V61H391.861L391.021 56.716H390.685C388.893 58.284 387.017 59.572 385.057 60.58C383.097 61.532 380.941 62.008 378.589 62.008ZM382.789 52.432C384.189 52.432 385.393 52.124 386.401 51.508C387.409 50.892 388.473 50.024 389.593 48.904V41.596C385.225 42.212 382.201 43.108 380.521 44.284C378.841 45.46 378.001 46.86 378.001 48.484C378.001 49.828 378.421 50.836 379.261 51.508C380.157 52.124 381.333 52.432 382.789 52.432ZM423.726 62.008C421.598 62.008 419.806 61.672 418.35 61C416.894 60.328 415.718 59.404 414.822 58.228C413.982 56.996 413.366 55.54 412.974 53.86C412.582 52.124 412.386 50.192 412.386 48.064V2.116H424.734V48.568C424.734 49.856 424.958 50.752 425.406 51.256C425.91 51.76 426.414 52.012 426.918 52.012C427.198 52.012 427.422 52.012 427.59 52.012C427.814 52.012 428.094 51.956 428.43 51.844L429.942 61C429.27 61.28 428.402 61.504 427.338 61.672C426.33 61.896 425.126 62.008 423.726 62.008Z" fill="url(#paint0_linear_9_1875)"/>
<defs>
<linearGradient id="paint0_linear_9_1875" x1="11.996" y1="41.5124" x2="459.429" y2="43.696" gradientUnits="userSpaceOnUse">
<stop stop-color="#00712D"/>
<stop offset="0.520833" stop-color="#128C7E"/>
<stop offset="1" stop-color="#FC974E"/>
</linearGradient>
</defs>
</svg>
