<svg width="111" height="111" viewBox="0 0 111 111" fill="none" xmlns="http://www.w3.org/2000/svg">
<path d="M55.534 87.8988C65.6882 87.8988 73.9197 79.6672 73.9197 69.513C73.9197 59.3588 65.6882 51.1272 55.534 51.1272C45.3798 51.1272 37.1482 59.3588 37.1482 69.513C37.1482 79.6672 45.3798 87.8988 55.534 87.8988Z" stroke="#032E29" stroke-width="6.89467" stroke-miterlimit="10" stroke-linecap="round" stroke-linejoin="round"/>
<path d="M48.3633 69.5127L51.351 72.5004C52.2243 73.3737 53.6492 73.4197 54.5225 72.5463L62.7042 65.0082" stroke="#032E29" stroke-width="6.89467" stroke-linecap="round" stroke-linejoin="round"/>
<path d="M41.744 101.688H69.3227C87.8004 101.688 91.1099 94.2872 92.0751 85.2782L95.5224 57.6995C96.7635 46.4842 93.546 37.3373 73.9192 37.3373H37.1476C17.5208 37.3373 14.3033 46.4842 15.5443 57.6995L18.9916 85.2782C19.9569 94.2872 23.2663 101.688 41.744 101.688Z" stroke="#032E29" stroke-width="6.89467" stroke-miterlimit="10" stroke-linecap="round" stroke-linejoin="round"/>
<path d="M34.8501 35.8206V31.3621C34.8501 21.02 43.1697 10.8619 53.5117 9.89665C65.8301 8.70158 76.2181 18.4001 76.2181 30.4887V36.8318" stroke="#032E29" stroke-width="6.89467" stroke-miterlimit="10" stroke-linecap="round" stroke-linejoin="round"/>
</svg>
